<svg xmlns="http://www.w3.org/2000/svg" height="32" viewBox="0 0 128 128" width="32"><path d="M64 13.5c-28.7 0-52 23.3-52 52s23.3 52 52 52 52-23.3 52-52-23.3-52-52-52zm0 100c-26.5 0-48-21.5-48-48s21.5-48 48-48 48 21.5 48 48-21.5 48-48 48z" fill="#3B97D3"/><path d="M85.2 45.2c2.3 2.3 2.3 6.1 0 8.5L72.8 66.1l12.7 12.7c2.3 2.3 2.3 6.1 0 8.5-2.3 2.3-6.1 2.3-8.5 0L64.3 74.6l-13 13.1c-2.3 2.3-6.1 2.3-8.5 0s-2.3-6.1 0-8.5l13.1-13.1-12.8-12.7c-2.3-2.3-2.3-6.1 0-8.5s6.1-2.3 8.5 0l12.7 12.7 12.4-12.4c2.4-2.3 6.2-2.3 8.5 0m1.4-1.4c-3.1-3.1-8.2-3.1-11.3 0l-11 11L53 43.5c-3.1-3.1-8.2-3.1-11.3 0-3.1 3.1-3.1 8.2 0 11.3L53 66.1 41.4 77.8c-3.1 3.1-3.1 8.2 0 11.3 3.1 3.1 8.2 3.1 11.3 0l11.6-11.6 11.3 11.3c3.1 3.1 8.2 3.1 11.3 0 3.1-3.1 3.1-8.2 0-11.3L75.6 66.1l11-11c3.1-3.1 3.1-8.2 0-11.3z" fill="#2C3E50"/></svg>
